<?xml version="1.0" encoding="utf-8"?>
<!-- Generator: Adobe Illustrator 16.0.0, SVG Export Plug-In . SVG Version: 6.00 Build 0)  -->
<!DOCTYPE svg PUBLIC "-//W3C//DTD SVG 1.1//EN" "http://www.w3.org/Graphics/SVG/1.1/DTD/svg11.dtd">
<svg version="1.1" id="Layer_1" xmlns="http://www.w3.org/2000/svg" xmlns:xlink="http://www.w3.org/1999/xlink" x="0px" y="0px"
	 width="1080px" height="322.8px" viewBox="0 0 1080 322.8" enable-background="new 0 0 1080 322.8" xml:space="preserve">
<g>
	<g>
		<path fill="#231F20" d="M439.047,196.336h1.463c9.775,0,13.135-7.296,13.135-17.51h27.729v1.314
			c0,29.334-14.454,40.131-42.328,40.131c-30.645,0-44.072-16.633-44.072-56.04v-5.833c0-39.398,13.427-56.042,44.072-56.042
			c27.874,0,42.328,10.807,42.328,40.128v5.699h-27.729c0-13.135-2.193-21.89-13.135-21.89h-1.463
			c-13.858,0-15.907,12.407-15.907,32.105v5.833C423.141,183.936,425.189,196.336,439.047,196.336"/>
	</g>
	<path fill="#231F20" d="M520.146,171.237h14.013l-7.007-34.732L520.146,171.237z M546.123,104.399l27.147,113.833H543.64
		l-4.668-23.062h-23.64l-4.526,23.062h-29.77l27.143-113.833H546.123z"/>
	<polygon fill="#231F20" points="580.009,218.234 580.009,104.397 607.739,104.397 607.739,194.299 647.87,194.299 647.87,218.234 	
		"/>
	<polygon fill="#231F20" points="690.929,218.234 663.197,218.234 663.197,183.204 630.946,104.397 661.301,104.397 
		677.062,149.055 692.823,104.397 723.181,104.397 690.929,183.204 	"/>
	<polygon fill="#231F20" points="756.138,157.959 729.871,104.399 761.979,104.399 775.843,139.132 789.704,104.399 
		821.812,104.399 795.395,157.959 821.812,218.234 791.164,218.234 775.843,179.554 760.517,218.234 729.871,218.234 	"/>
	<g>
		<path fill="#9ACC01" d="M366.82,162.067c-29.232,51.099-84.277,85.535-147.367,85.535c-63.089,0-118.134-34.437-147.367-85.535
			c29.233-51.103,84.278-85.54,147.367-85.54C282.543,76.527,337.588,110.964,366.82,162.067"/>
		<path fill="#231F20" d="M310.908,255.311l-25.827-47.503c8.935-13.01,14.165-28.763,14.165-45.737
			c0-44.671-36.212-80.882-80.882-80.882s-80.882,36.21-80.882,80.882c0,44.671,36.212,80.881,80.882,80.881
			c16.908,0,32.604-5.188,45.585-14.062l46.949,26.433L310.908,255.311z"/>
		<path fill="#9ACC01" d="M873.479,196.222c13.134,0,15.905-12.405,15.905-32.108v-5.836c0-19.698-2.771-32.102-15.905-32.102
			h-1.458c-13.136,0-15.908,12.404-15.908,32.102v5.836c0,19.703,2.772,32.108,15.908,32.108H873.479z M827.95,164.113v-5.836
			c0-39.401,14.153-56.039,44.8-56.039c30.646,0,44.801,16.638,44.801,56.039v5.836c0,39.404-14.155,56.042-44.801,56.042
			C842.104,220.155,827.95,203.518,827.95,164.113"/>
		<path fill="#9ACC01" d="M924.175,138.868v-1.604c0-21.162,14.158-35.025,41.593-35.025c28.748,0,41.59,12.259,41.59,39.84v3.067
			h-27.727c0-12.846-3.647-18.974-13.863-18.974h-1.46c-8.027,0-11.969,4.523-11.969,10.36v0.586
			c0,7.002,2.336,10.505,17.661,12.548c24.808,3.358,38.086,11.238,38.086,33.566v1.605c0,22.327-14.446,35.314-42.318,35.314
			c-27.727,0-42.32-11.528-42.32-40.132v-1.315h27.727c0,12.553,4.379,17.515,13.863,17.515h1.46
			c9.486,0,13.425-5.106,13.425-10.654v-0.581c0-6.57-3.064-10.507-18.388-12.552C936.727,169.077,924.175,161.198,924.175,138.868"
			/>
		<path fill="#9ACC01" d="M259.146,182.13c0,21.889-17.804,39.692-39.691,39.692c-21.889,0-39.694-17.804-39.694-39.692v-12.797
			v-33.415v-2.609c0-3.035,2.47-5.503,5.505-5.503c3.034,0,5.503,2.468,5.503,5.503v29.553c0,1.601,1.295,2.896,2.899,2.896
			c0.032,0,0.063-0.008,0.097-0.008c0.032,0,0.062,0.008,0.095,0.008c1.601,0,2.897-1.295,2.897-2.896v-44.809
			c0-3.037,2.468-5.507,5.505-5.507s5.505,2.47,5.505,5.507v41.333v0.869c0,1.602,1.298,2.896,2.898,2.896
			c1.597,0,2.896-1.295,2.896-2.896v-0.869v-41.333v-10.24c0-3.035,2.471-5.501,5.504-5.501c3.037,0,5.506,2.466,5.506,5.501v9.08
			v42.975c0,1.603,1.297,2.899,2.897,2.899c1.599,0,2.897-1.297,2.897-2.899v-42.975c0-3.036,2.47-5.505,5.505-5.505
			c3.036,0,5.503,2.47,5.503,5.505v30.229v21.825v2.957c-6.59,0.613-22.117,3.955-28.509,21.627
			c-0.543,1.504,0.235,3.166,1.74,3.713c0.324,0.117,0.658,0.172,0.983,0.172c1.186,0,2.296-0.736,2.726-1.91
			c6.702-18.531,25.048-17.97,25.819-17.939l3.037,0.146v-8.766v-21.825c0-3.035,2.688-5.505,5.988-5.505
			c3.303,0,5.987,2.47,5.987,5.505v3.716v22.167V182.13z M253.159,135.82c-2.187,0-4.23,0.588-5.988,1.586v-20.514
			c0-6.231-5.068-11.301-11.299-11.301c-2.015,0-3.903,0.539-5.543,1.465c-0.393-5.877-5.288-10.541-11.263-10.541
			c-6.23,0-11.298,5.068-11.298,11.297v0.378c-1.632-0.912-3.506-1.44-5.505-1.44c-6.229,0-11.298,5.068-11.298,11.301v5.516
			c-1.676-0.984-3.619-1.558-5.699-1.558c-6.231,0-11.301,5.066-11.301,11.298v2.609v33.415v12.797
			c0,25.081,20.406,45.487,45.49,45.487c25.081,0,45.485-20.406,45.485-45.487v-9.127v-22.167v-3.716
			C264.94,140.888,259.656,135.82,253.159,135.82"/>
	</g>
</g>
</svg>
