<?xml version="1.0" encoding="utf-8"?>
<!-- Generator: Adobe Illustrator 23.0.1, SVG Export Plug-In . SVG Version: 6.00 Build 0)  -->
<svg version="1.1" id="Layer_1" xmlns="http://www.w3.org/2000/svg" xmlns:xlink="http://www.w3.org/1999/xlink" x="0px" y="0px"
	 viewBox="0 0 648 216" style="enable-background:new 0 0 648 216;" xml:space="preserve">
<style type="text/css">
	.st0{fill:#33FF99;}
</style>
<g>
	<path class="st0" d="M277.49,124.03h0.67c4.49,0,6.03-3.35,6.03-8.04h12.74v0.6c0,13.47-6.64,18.43-19.44,18.43
		c-14.07,0-20.24-7.64-20.24-25.74v-2.68c0-18.09,6.17-25.74,20.24-25.74c12.8,0,19.44,4.96,19.44,18.43v2.62H284.2
		c0-6.03-1.01-10.05-6.03-10.05h-0.67c-6.36,0-7.31,5.7-7.31,14.74v2.68C270.19,118.33,271.13,124.03,277.49,124.03"/>
	<path class="st0" d="M326.67,81.8l12.47,52.28h-13.61l-2.14-10.59h-10.86l-2.08,10.59h-13.67l12.47-52.28H326.67z M314.74,112.5
		h6.44l-3.22-15.95L314.74,112.5z"/>
	<polygon class="st0" points="342.24,134.08 342.24,81.8 354.97,81.8 354.97,123.09 373.4,123.09 373.4,134.08 	"/>
	<polygon class="st0" points="393.18,134.08 380.44,134.08 380.44,117.99 365.63,81.8 379.57,81.8 386.81,102.31 394.05,81.8 
		407.99,81.8 393.18,117.99 	"/>
	<polygon class="st0" points="422.31,106.4 410.25,81.8 424.99,81.8 431.36,97.75 437.73,81.8 452.48,81.8 440.34,106.4 
		452.48,134.08 438.4,134.08 431.36,116.32 424.32,134.08 410.25,134.08 	"/>
</g>
<ellipse cx="175.82" cy="108.29" rx="67.68" ry="39.29"/>
<path class="st0" d="M217.82,151.11l-11.86-21.82c4.1-5.97,6.51-13.21,6.51-21.01c0-20.52-16.63-37.15-37.15-37.15
	c-20.52,0-37.15,16.63-37.15,37.15c0,20.52,16.63,37.15,37.15,37.15c7.77,0,14.98-2.38,20.94-6.46L217.82,151.11L217.82,151.11z"/>
<g>
	<path d="M456.32,109.23v-2.68c0-18.1,6.5-25.74,20.58-25.74c14.07,0,20.58,7.64,20.58,25.74v2.68c0,18.1-6.5,25.74-20.58,25.74
		C462.83,134.97,456.32,127.32,456.32,109.23z M477.24,123.97c6.03,0,7.31-5.7,7.31-14.75v-2.68c0-9.05-1.27-14.74-7.31-14.74h-0.67
		c-6.03,0-7.31,5.7-7.31,14.74v2.68c0,9.05,1.27,14.75,7.31,14.75H477.24z"/>
	<path d="M501.59,97.63v-0.74c0-9.72,6.5-16.09,19.1-16.09c13.2,0,19.1,5.63,19.1,18.3v1.41h-12.73c0-5.9-1.68-8.71-6.37-8.71h-0.67
		c-3.69,0-5.5,2.08-5.5,4.76v0.27c0,3.22,1.07,4.83,8.11,5.76c11.39,1.54,17.49,5.16,17.49,15.42v0.74
		c0,10.25-6.64,16.22-19.44,16.22c-12.73,0-19.44-5.3-19.44-18.43v-0.6H514c0,5.76,2.01,8.04,6.37,8.04h0.67
		c4.36,0,6.17-2.35,6.17-4.89v-0.27c0-3.02-1.41-4.83-8.45-5.76C507.36,111.51,501.59,107.89,501.59,97.63z"/>
</g>
<path d="M191.3,96.23c-1,0-1.94,0.27-2.75,0.73v-9.42c0-2.86-2.33-5.19-5.19-5.19c-0.93,0-1.79,0.25-2.55,0.67
	c-0.18-2.7-2.43-4.84-5.17-4.84c-2.86,0-5.19,2.33-5.19,5.19v0.17c-0.75-0.42-1.61-0.66-2.53-0.66c-2.86,0-5.19,2.33-5.19,5.19v2.53
	c-0.77-0.45-1.66-0.72-2.62-0.72c-2.86,0-5.19,2.33-5.19,5.19v1.2v15.35v5.88c0,11.52,9.37,20.89,20.89,20.89
	c11.52,0,20.89-9.37,20.89-20.89v-4.19v-10.18v-1.71C196.71,98.56,194.28,96.23,191.3,96.23z M194.05,117.5
	c0,10.05-8.18,18.23-18.23,18.23c-10.05,0-18.23-8.18-18.23-18.23v-5.88V96.28v-1.2c0-1.39,1.13-2.53,2.53-2.53
	c1.39,0,2.53,1.13,2.53,2.53v13.57c0,0.74,0.6,1.33,1.33,1.33c0.02,0,0.03,0,0.04,0c0.01,0,0.03,0,0.04,0c0.73,0,1.33-0.6,1.33-1.33
	V88.07c0-1.39,1.13-2.53,2.53-2.53c1.39,0,2.53,1.13,2.53,2.53v18.98v0.4c0,0.74,0.6,1.33,1.33,1.33c0.73,0,1.33-0.6,1.33-1.33v-0.4
	V88.07v-4.7c0-1.39,1.13-2.53,2.53-2.53c1.39,0,2.53,1.13,2.53,2.53v4.17v19.74c0,0.74,0.6,1.33,1.33,1.33
	c0.73,0,1.33-0.6,1.33-1.33V87.54c0-1.39,1.13-2.53,2.53-2.53c1.39,0,2.53,1.13,2.53,2.53v13.88v10.02v1.36
	c-3.03,0.28-10.16,1.82-13.09,9.93c-0.25,0.69,0.11,1.45,0.8,1.7c0.15,0.05,0.3,0.08,0.45,0.08c0.54,0,1.05-0.34,1.25-0.88
	c3.08-8.51,11.5-8.25,11.86-8.24l1.39,0.07v-4.03v-10.02c0-1.39,1.23-2.53,2.75-2.53c1.52,0,2.75,1.13,2.75,2.53v1.71v10.18V117.5z"
	/>
</svg>
